<svg xmlns:dc="http://purl.org/dc/elements/1.1/" xmlns:cc="http://creativecommons.org/ns#" xmlns:rdf="http://www.w3.org/1999/02/22-rdf-syntax-ns#" xmlns:svg="http://www.w3.org/2000/svg" xmlns="http://www.w3.org/2000/svg" xmlns:sodipodi="http://sodipodi.sourceforge.net/DTD/sodipodi-0.dtd" xmlns:inkscape="http://www.inkscape.org/namespaces/inkscape" version="1.1" x="0px" y="0px" viewBox="0 0 100 125"><g transform="translate(0,-952.36218)"><path style="text-indent:0;text-transform:none;direction:ltr;block-progression:tb;baseline-shift:baseline;color:#fff;enable-background:accumulate;" d="m 74.738903,973.96261 c -0.4725,-0.4424 -1.091,-0.7274 -1.7352,-0.7986 -3.7934,-1.1046 -7.0018,-3.6741 -10.3005,-5.3012 -2.3158,-1.1299 -4.9297,-2.07049 -7.8307,-1.99679 -2.901,0.073 -5.9614,1.32899 -8.5412,3.90039 -3.9143,3.9014 -3.7705,9.60477 -2.1548,14.43313 1.0762,3.21598 2.774,6.29851 4.7401,8.93607 -1.1411,0.37505 -1.9982,1.48666 -2.0682,2.6823 -0.9932,0.0552 -1.9418,0.63465 -2.4418,1.49163 -0.4999,0.857 -0.5357,1.96558 -0.093,2.85346 l -26.4463,26.3406 c -1.1439,1.1083 -1.1581,3.1624 -0.03,4.2872 1.1286,1.1248 3.1894,1.1107 4.3014,-0.029 l 2.8494,-2.8217 0.712,0.7096 -1.4233,1.4187 c -0.3726,0.3714 -0.3725,1.0474 3e-4,1.419 l 7.1198,7.0963 c 0.3728,0.3715 1.051,0.3717 1.4237,3e-4 l 2.1351,-2.128 c 0.3725,-0.3714 0.3724,-1.0474 -3e-4,-1.419 l -2.848,-2.8385 0.7117,-0.7093 2.8479,2.8385 c 0.3729,0.3715 1.0511,0.3717 1.4237,3e-4 l 5.6935,-5.6747 c 0.3726,-0.3714 0.3725,-1.0474 -3e-4,-1.419 l -2.8479,-2.8385 0.7117,-0.7093 2.8479,2.8385 c 0.3728,0.3715 1.051,0.3717 1.4237,3e-4 l 2.1351,-2.128 c 0.3725,-0.3714 0.3724,-1.0474 -3e-4,-1.419 -2.3936,-2.3856 -4.7979,-4.782 -7.1866,-7.1628 -0.383,-0.316 -1.0071,-0.2855 -1.3569,0.066 l -1.4234,1.4187 -0.712,-0.7097 12.2099,-12.1695 c 0.8909,0.4415 2.003,0.4054 2.8629,-0.093 0.8598,-0.4983 1.4413,-1.4436 1.4966,-2.4337 1.1996,-0.07 2.3149,-0.9241 2.6912,-2.06139 2.6463,1.95959 5.739,3.65179 8.9656,4.72439 4.8444,1.6104 10.5667,1.7538 14.481,-2.1476 2.5799,-2.57136 3.8396,-5.62164 3.9133,-8.513 0.074,-2.89137 -0.87,-5.49659 -2.0036,-7.80478 -1.6547,-3.64837 -4.2796,-6.42469 -5.3188,-10.26641 -0.1056,-0.791 -0.4592,-1.3845 -0.9347,-1.8626 z m -9.3637,6.44987 c 0,1.57951 1.4412,3.01819 3.0259,3.01594 2.1682,4.5e-4 3.0122,0.1312 5.7175,2.72827 1.3218,2.31854 2.8764,5.00385 2.849,7.58321 -0.037,1.43203 -0.4666,2.72699 -2.1569,4.41166 -1.7792,1.77334 -4.5989,1.91494 -8.2972,0.68557 -2.7702,-0.94215 -4.7829,-1.97944 -6.2517,-4.5021 -0.2215,-0.57368 -0.2227,-1.15296 -0.223,-2.57193 -0.001,-0.80976 -0.3471,-1.61357 -0.9347,-2.17297 -0.555,-0.53296 -1.3208,-0.8416 -2.0912,-0.84296 -1.4237,-3.1e-4 -2.0049,-10e-4 -2.5805,-0.22225 -2.5042,-1.26744 -3.6449,-3.66625 -4.517,-6.23111 -1.2335,-3.68603 -1.0914,-6.4964 0.6878,-8.2698 1.6903,-1.6846 2.9895,-2.1132 4.4263,-2.1497 1.4368,-0.036 3.1388,0.4871 5.0054,1.3979 3.1165,1.2873 5.3294,4.41078 5.3403,7.14028 z" fill="#fff" fill-opacity="1" fill-rule="nonzero" stroke="none" marker="none" visibility="visible" display="inline" overflow="visible"/></g></svg>
